M48
;Layer_Color=9474304
;FILE_FORMAT=4:2
METRIC,TZ
;TYPE=PLATED
T1F00S00C0.20
;TYPE=NON_PLATED
T2F00S00C0.70
T3F00S00C0.90
%
T01
X11940Y7007
Y7160
Y7312
Y7465
Y7618
X14127Y7005
Y6940
Y6875
Y6810
Y6745
Y6680
Y6615
Y6550
Y6485
Y6420
Y6355
Y6290
Y6225
Y6160
Y6095
X10475Y6246
Y6398
Y6551
Y6703
Y6855
X9535Y6092
Y5940
Y5788
Y5635
Y5483
X5745Y6095
Y6160
Y6225
Y6290
Y6355
Y6420
Y6485
Y6550
Y6615
Y6680
Y6745
Y6810
Y6875
Y6940
Y7005
T02
X13521Y7160
X6384Y7120
T03
X13521Y5940
X6384Y5980
M30
