%FSTAX42Y42*%
%MOMM*%
%SFA1B1*%

%IPPOS*%
%ADD10R,1.849996X0.739999*%
%ADD11R,1.799996X0.399999*%
%ADD13R,1.999996X2.499995*%
%ADD14R,1.999996X2.499995*%
%ADD15R,1.999996X2.499995*%
%LNflex_debugging-1*%
%LPD*%
G54D10*
X011444Y007193D03*
Y006812D03*
Y006939D03*
Y007066D03*
Y00732D03*
X010094Y006677D03*
Y006296D03*
Y006423D03*
Y00655D03*
Y006804D03*
X009669Y006677D03*
Y006296D03*
Y006423D03*
Y00655D03*
Y006804D03*
X008421Y006134D03*
Y005753D03*
Y00588D03*
Y006007D03*
Y006261D03*
X011019Y00732D03*
Y007193D03*
Y007066D03*
Y006939D03*
Y006812D03*
X008846Y006261D03*
Y006134D03*
Y006007D03*
Y00588D03*
Y005753D03*
G54D11*
X006593Y006993D03*
Y00693D03*
Y006866D03*
Y006803D03*
Y006739D03*
Y006676D03*
Y006612D03*
Y006549D03*
Y006485D03*
Y006422D03*
Y006358D03*
Y006295D03*
Y006231D03*
Y006168D03*
Y006104D03*
X006173D03*
Y006168D03*
Y006231D03*
Y006295D03*
Y006358D03*
Y006422D03*
Y006485D03*
Y006549D03*
Y006993D03*
Y00693D03*
Y006866D03*
Y006803D03*
Y006739D03*
Y006676D03*
Y006612D03*
X01373D03*
Y006676D03*
Y006739D03*
Y006803D03*
Y006866D03*
Y00693D03*
Y006993D03*
Y006549D03*
Y006485D03*
Y006422D03*
Y006358D03*
Y006295D03*
Y006231D03*
Y006168D03*
Y006104D03*
X01331D03*
Y006168D03*
Y006231D03*
Y006295D03*
Y006358D03*
Y006422D03*
Y006485D03*
Y006549D03*
Y006612D03*
Y006676D03*
Y006739D03*
Y006803D03*
Y006866D03*
Y00693D03*
Y006993D03*
G54D13*
X006383Y005799D03*
G54D14*
X006383Y007299D03*
G54D15*
X01352Y007364D03*
Y005734D03*
M02*