%FSTAX42Y42*%
%MOMM*%
%SFA1B1*%

%IPPOS*%
%ADD12C,0.250000*%
%ADD19C,0.150000*%
%ADD20C,0.200000*%
%LNflex_debugging-1*%
%LPD*%
G54D12*
X006417Y007501D02*
Y007654D01*
X006493*
X006519Y007628*
Y007577*
X006493Y007552*
X006417*
X006671Y007501D02*
X006569D01*
X006671Y007603*
Y007628*
X006645Y007654*
X006595*
X006569Y007628*
X013618Y007565D02*
Y007717D01*
X013694*
X013719Y007692*
Y007641*
X013694Y007615*
X013618*
X01377Y007565D02*
X013821D01*
X013796*
Y007717*
X01377Y007692*
X009917Y007082D02*
Y007234D01*
X009993*
X010019Y007209*
Y007158*
X009993Y007133*
X009917*
X010146Y007082D02*
Y007234D01*
X010069Y007158*
X010171*
X011266Y0076D02*
Y007753D01*
X011342*
X011367Y007727*
Y007676*
X011342Y007651*
X011266*
X01152Y007753D02*
X011418D01*
Y007676*
X011469Y007702*
X011494*
X01152Y007676*
Y007626*
X011494Y0076*
X011444*
X011418Y007626*
X00867Y006541D02*
Y006693D01*
X008746*
X008771Y006668*
Y006617*
X008746Y006592*
X00867*
X008822Y006668D02*
X008848Y006693D01*
X008898*
X008924Y006668*
Y006643*
X008898Y006617*
X008873*
X008898*
X008924Y006592*
Y006566*
X008898Y006541*
X008848*
X008822Y006566*
G54D19*
X006123Y005838D02*
Y006023D01*
Y005838D02*
X006233Y005728D01*
D01*
X006534D02*
X006644D01*
Y006023*
X006643Y007074D02*
Y007369D01*
X006123Y007074D02*
Y007369D01*
X006233*
X006533D02*
X006643D01*
X0132Y005679D02*
X01337D01*
X0132D02*
Y006024D01*
Y007074D02*
Y007419D01*
X01337*
X01367D02*
X01384D01*
Y007074D02*
Y007419D01*
X01367Y005679D02*
X01384Y005849D01*
Y006024*
G54D20*
X010145Y006136D02*
Y006169D01*
Y006152*
X010045*
X010061Y006136*
X010127Y00692D02*
X010144Y006936D01*
Y00697*
X010127Y006986*
X010061*
X010044Y00697*
Y006936*
X010061Y00692*
X010077*
X010094Y006936*
Y006986*
X011494Y006652D02*
Y006686D01*
Y006669*
X011394*
X011411Y006652*
X011477Y007436D02*
X011494Y007453D01*
Y007486*
X011477Y007503*
X01141*
X011394Y007486*
Y007453*
X01141Y007436*
X011427*
X011444Y007453*
Y007503*
X008897Y005593D02*
Y005627D01*
Y00561*
X008797*
X008814Y005593*
X00888Y006377D02*
X008896Y006394D01*
Y006427*
X00888Y006444*
X008813*
X008797Y006427*
Y006394*
X008813Y006377*
X00883*
X008847Y006394*
Y006444*
M02*